# xmcd CD database file
#
# Track frame offsets:
#	150
#	21118
#	43058
#	68677
#	100387
#	121323
#	138624
#	166248
#	192213
#	212902
#	237549
#	256571
#	281279
#	308774
#	324542
#
# Disc length: 4648 seconds
#
# Revision: 0
# Processed by: cddbd v1.5.2PL0 Copyright (c) Steve Scherf et al.
# Submitted via: CDex 1.70beta2
#
DISCID=d312260f
DTITLE=Butlers - Lounge Tunes
DYEAR=2012
DGENRE=Jazz
TTITLE0=Spiral System and Lottie Child-Here We Are
TTITLE1=Thievery Corporation-Satyam Shivam Sundaram (Govinda Remix)
TTITLE2=Bliss- Long Life To You My Friend (Christophe Goze Remix)
TTITLE3=Blank and Jones with Mike Francis-Roots/Nothing Can Come Bethween us
TTITLE4=Blank and Jones with Cathy Battistessa-Miracle Man 
TTITLE5=Mystic Diversions-Miniatures Of You (Album Version)
TTITLE6=Lemongrass-Ocean Kisses
TTITLE7=Can-Breakfast At The Sahara
TTITLE8=Vargo-Awakening (Original Chorus Mix)
TTITLE9=Roberto Di Gioia's Marsmobil-Hand In Hand
TTITLE10=Mystic Diversions-Landless (Album Version)
TTITLE11=Fluff-Silent Life
TTITLE12=Bliss-Kissing (Album Version)
TTITLE13=Lua-Jogo Bom (Remixed by Lenny Ibizarre)
TTITLE14=Joyse Eline Yuille-Welcome To My World (Acoustic Version)
EXTD=YEAR: 2012
EXTT0=
EXTT1=
EXTT2=
EXTT3=
EXTT4=
EXTT5=
EXTT6=
EXTT7=
EXTT8=
EXTT9=
EXTT10=
EXTT11=
EXTT12=
EXTT13=
EXTT14=
PLAYORDER=
